<svg width="40" height="40" viewBox="0 0 40 40" fill="none" xmlns="http://www.w3.org/2000/svg">
<path d="M19.3911 12.0824L19.8095 12.5098L20.1559 12.0222L26.8454 2.60565L25.4322 14.0697L25.359 14.6633L25.9562 14.6301L37.4892 13.9891L27.6451 20.0318L27.1354 20.3447L27.5337 20.7909L35.2255 29.4081L24.3634 25.4793L23.801 25.2759L23.7005 25.8654L21.7591 37.2519L18.0583 26.31L17.8667 25.7435L17.3431 26.0325L7.23033 31.614L13.4777 21.8984L13.8012 21.3954L13.2487 21.1662L2.57973 16.7397L14.0708 15.5666L14.6658 15.5058L14.5006 14.931L11.3093 3.82982L19.3911 12.0824Z" fill="#F8F5ED" stroke="#F8F5ED"/>
</svg>
