<svg width="311" height="46" viewBox="0 0 311 46" fill="none" xmlns="http://www.w3.org/2000/svg">
<path d="M11.04 17.64C15.16 17.64 19.24 15.6 19.24 11.16C19.24 6.56 14.36 4.76 8.48 4.76H1.4V33H4.6V10.72C4.88 12.28 5.4 13.64 6.16 14.72C7.44 16.56 9.12 17.64 11.04 17.64ZM16.04 11.16C16.04 15.52 13.72 17.32 11.04 17.32C9.16 17.32 7.56 16.32 6.4 14.52C5.2 12.84 4.6 10.44 4.6 7.68V5.04H8.48C12.24 5.04 16.04 6.6 16.04 11.16ZM36.465 33H39.825L27.865 4.76H27.585C24.545 9.92 20.945 17.2 18.825 22.92C17.865 25.48 17.305 27.72 17.105 29.48C16.905 31.28 17.345 32.48 18.425 32.96C18.705 33.2 18.825 33.2 19.065 33.24C20.865 33.32 21.545 31.84 22.305 29.84C23.585 26.92 25.145 22.8 31.945 22.16L36.465 33ZM31.825 21.88C24.905 22.56 23.305 26.76 21.985 29.76C21.345 31.6 20.705 33 19.105 32.88C18.905 32.76 18.785 32.76 18.545 32.68C17.585 32.36 17.305 31.12 17.385 29.48C17.585 27.76 18.145 25.56 19.105 23C20.785 18.36 23.505 12.92 25.945 8.2L31.825 21.88ZM66.8509 4.76C58.3709 4.76 55.8109 16.64 55.0509 25.84L45.9309 4.76H42.6109V33H42.8509V5.48L43.9709 8.12L54.7709 33H55.1709C55.1709 25.72 55.8109 9.08 63.8109 5.72V33H66.8509V4.76ZM72.7222 14.16C73.8822 18.88 78.6822 18.64 81.0022 21.28V18.12C75.5222 18.12 72.7222 17 72.7222 11.52V5.04H76.0022C80.8822 5.04 82.9622 5.24 85.8022 7.96V4.76H69.6422V33H85.5622L86.4822 27.08C85.0422 31.12 82.9622 32.68 79.4822 32.68H72.7222V14.16ZM106.211 27.08C104.731 31.12 102.691 32.68 99.2506 32.68H92.4906V4.76H89.2906V33H105.251L106.211 27.08ZM128.457 33H131.817L119.857 4.76H119.577C116.537 9.92 112.937 17.2 110.817 22.92C109.857 25.48 109.297 27.72 109.097 29.48C108.897 31.28 109.337 32.48 110.417 32.96C110.697 33.2 110.817 33.2 111.057 33.24C112.857 33.32 113.537 31.84 114.297 29.84C115.577 26.92 117.137 22.8 123.937 22.16L128.457 33ZM123.817 21.88C116.897 22.56 115.297 26.76 113.977 29.76C113.337 31.6 112.697 33 111.097 32.88C110.897 32.76 110.777 32.76 110.537 32.68C109.577 32.36 109.297 31.12 109.377 29.48C109.577 27.76 110.137 25.56 111.097 23C112.777 18.36 115.497 12.92 117.937 8.2L123.817 21.88ZM148.815 16.4C150.935 21.92 161.735 14.6 161.735 22.68V33H164.855V4.76H161.735V20.52C159.695 14.96 148.815 22.4 148.815 14.2V4.76H145.775V33H148.815V16.4ZM187.09 33H190.45L178.49 4.76H178.21C175.17 9.92 171.57 17.2 169.45 22.92C168.49 25.48 167.93 27.72 167.73 29.48C167.53 31.28 167.97 32.48 169.05 32.96C169.33 33.2 169.45 33.2 169.69 33.24C171.49 33.32 172.17 31.84 172.93 29.84C174.21 26.92 175.77 22.8 182.57 22.16L187.09 33ZM182.45 21.88C175.53 22.56 173.93 26.76 172.61 29.76C171.97 31.6 171.33 33 169.73 32.88C169.53 32.76 169.41 32.76 169.17 32.68C168.21 32.36 167.93 31.12 168.01 29.48C168.21 27.76 168.77 25.56 169.73 23C171.41 18.36 174.13 12.92 176.57 8.2L182.45 21.88ZM202.356 33C209.996 33 216.356 26.76 216.356 18.92C216.356 11.04 209.996 4.76 202.356 4.76H193.236V33H202.356ZM196.356 5.04H202.356C208.476 5.04 213.396 11.28 213.396 18.92C213.396 26.56 208.476 32.68 202.356 32.68H196.356V5.04ZM228.293 33C235.933 33 242.293 26.76 242.293 18.92C242.293 11.04 235.933 4.76 228.293 4.76H219.173V33H228.293ZM222.293 5.04H228.293C234.413 5.04 239.333 11.28 239.333 18.92C239.333 26.56 234.413 32.68 228.293 32.68H222.293V5.04ZM262.559 33H265.919L253.959 4.76H253.679C250.639 9.92 247.039 17.2 244.919 22.92C243.959 25.48 243.399 27.72 243.199 29.48C242.999 31.28 243.439 32.48 244.519 32.96C244.799 33.2 244.919 33.2 245.159 33.24C246.959 33.32 247.639 31.84 248.399 29.84C249.679 26.92 251.239 22.8 258.039 22.16L262.559 33ZM257.919 21.88C250.999 22.56 249.399 26.76 248.079 29.76C247.439 31.6 246.799 33 245.199 32.88C244.999 32.76 244.879 32.76 244.639 32.68C243.679 32.36 243.399 31.12 243.479 29.48C243.679 27.76 244.239 25.56 245.199 23C246.879 18.36 249.599 12.92 252.039 8.2L257.919 21.88ZM277.825 33C285.465 33 291.825 26.76 291.825 18.92C291.825 11.04 285.465 4.76 277.825 4.76H268.705V33H277.825ZM271.825 5.04H277.825C283.945 5.04 288.865 11.28 288.865 18.92C288.865 26.56 283.945 32.68 277.825 32.68H271.825V5.04Z" fill="#F8F5ED"/>
</svg>
